<?xml version="1.0" encoding="UTF-8"?>
<!DOCTYPE svg PUBLIC "-//W3C//DTD SVG 1.1//EN" "http://www.w3.org/Graphics/SVG/1.1/DTD/svg11.dtd">
<!-- Creator: CorelDRAW 2019 (64-Bit) -->
<svg xmlns="http://www.w3.org/2000/svg" xml:space="preserve" width="179.514mm" height="167.482mm" version="1.1" style="shape-rendering:geometricPrecision; text-rendering:geometricPrecision; image-rendering:optimizeQuality; fill-rule:evenodd; clip-rule:evenodd"
viewBox="0 0 19064.15 17786.36"
 xmlns:xlink="http://www.w3.org/1999/xlink"
 xmlns:xodm="http://www.corel.com/coreldraw/odm/2003">
 <defs>
  <style type="text/css">
   <![CDATA[
    .fil1 {fill:#4D5D6D}
    .fil4 {fill:#4F5B69}
    .fil11 {fill:#505C6A}
    .fil9 {fill:#515D6A}
    .fil8 {fill:#525E6C}
    .fil0 {fill:#84909E}
    .fil13 {fill:#8891A0}
    .fil6 {fill:#991546}
    .fil3 {fill:#A9B7C4}
    .fil2 {fill:#B3B3B3}
    .fil12 {fill:#B3B3B4}
    .fil10 {fill:#F6528F}
    .fil7 {fill:#FDFDFD}
    .fil5 {fill:#FEFEFE}
   ]]>
  </style>
 </defs>
 <g id="Слой_x0020_1">
  <metadata id="CorelCorpID_0Corel-Layer"/>
  <g id="_2769380223408">
   <path class="fil0" d="M5442.4 13969.84c-147.7,-967.72 410.63,-2232.3 836.75,-2849.85 212.49,-307.93 837.37,-1019.47 1088.18,-1233.83 98.22,-83.95 126.37,-98.22 244.68,-205.09 105.55,-95.32 406.07,-353.58 546.17,-84.99 96.63,185.26 -143.84,497.5 -225.27,667.74 -270.42,565.25 -1268.75,2191.5 -1670.83,2899.74 -476.94,840.1 -365.31,1097.21 -819.69,806.28zm761.96 -4715.43c74.09,279.58 -52.81,339.22 -186.75,517.78 -585.05,780.02 -992.38,1326.47 -1457.36,2214.46 -194.85,372.11 -257.15,674.21 -412.3,709.82 -497.19,114.14 -203.12,-1147.78 -138.3,-1374.62 188.23,-658.77 695.48,-1314.94 1231.66,-1688.85 263.67,-183.87 636.62,-491.58 963.04,-378.6zm-1777.02 -247.49c43.87,238.99 -115.03,289.33 -397.61,576.07 -164.52,166.94 -300.36,302.4 -477.86,458.47l-491.83 444.93c-67.44,69.36 -370.16,476.68 -519.49,225.51 -108.31,-182.17 81.68,-606.47 164.78,-767.8 320.73,-622.69 1280.96,-1224.22 1722.01,-937.18zm1602.04 -6651.97c-17.35,-130.32 -77.57,-351.9 85.34,-348.07 139.47,3.27 129.46,237.41 150.09,379.74 29.81,205.73 86.78,254.21 -73.12,343.4 -142.53,-61.53 -122.25,-74.33 -162.31,-375.07zm-2094.84 -4.89c59.37,111.37 227.29,275.13 128.34,372.12 -165.89,162.6 -456.41,-445.27 -432.86,-618.6 173.58,-72.25 237.37,120.5 304.51,246.48zm366.56 7.74c72.95,158.96 154.29,273.23 96.51,431.4 -225.83,11.83 -211.39,-136.78 -300.7,-337.77 -66.02,-148.57 -172.71,-290.22 -78.16,-446.18 211.57,-27.91 186.24,143.11 282.35,352.55zm-3129.68 221.76c-2.92,-574.77 203.25,-1502.25 764.99,-1526.06 117.53,353.67 344.58,606.15 68.22,1032.99 -143.76,222.05 -477.71,472.5 -833.22,493.07zm302.36 14055.88c124.14,-624.82 1292.61,-506.48 1365.93,-3.2 -278.27,51.87 -537.78,-15.96 -800.98,12.34 252.24,114.55 5860.14,211.93 6888.51,116l2072.23 -332.87c-460.24,-324.84 -964.42,-155.8 -1092.53,-198.05 -205.97,-67.91 -92.48,-457.64 727.15,-276.7 413.43,91.26 913.78,486.71 1859.98,728.28 1394.46,356.02 3365.52,357.11 4822.87,196.35 296.97,-32.76 807.05,-110.13 1007.49,-268.77 335.72,-265.73 243.43,-588.11 -162.3,-724.98 -1405.14,-473.95 -3633.46,273.47 -4746.27,-199.1 -302.68,-128.54 -527.98,-318.01 -650.75,-621.66 -130.95,-323.86 -222.5,-789.69 132.77,-943.64 7.26,10.13 13.47,14.67 16.16,33.73 2.62,18.6 11.81,24.4 15.22,33.17l54.49 168.99c11.78,-163.36 -33.12,-260.16 -29.69,-437.77 2.42,-125.41 18.63,-272.92 31.1,-398.81 203.42,-2054.49 1245.14,-2135.53 1419.17,-4512.94 300.28,640.03 240.68,2435 105.26,3187.42 -185.86,1032.72 -540.11,1797.18 -959.03,2583.55 136.14,-79.67 240.43,-316.15 328.73,-476.43 102.79,-186.6 169.63,-359.52 264,-561.99 174.61,-374.66 302.55,-800.37 399.02,-1246.29 216.65,-1001.49 144.83,-2050.58 33.78,-3066.34 -109.26,-999.44 -403.28,-1862.98 -301.4,-2894.4 48.04,-486.4 149.8,-909.93 176.51,-1419.2 23.28,-443.81 -80.19,-1238.84 13.61,-1587 -248.46,-49.16 -372.91,-328.52 -298.24,-667.76 54.97,-249.73 220.17,-515.8 363.08,-652.46 62.14,236.3 10.57,435.69 17.87,668.96 76.17,-223.64 25.55,-558.06 47.82,-811.12 26.07,-296.29 54.71,-506.41 -198.89,-617.95 -516.45,108.37 -860.08,1607.97 -1020.5,2234.08 -397.93,1553.12 -417.78,2316.37 -1807.1,3065.29 -368.15,198.45 -762.67,350.76 -1224.71,421.57 -529.95,81.21 -2068.61,102.43 -2659.43,-19.94 -177.85,-36.84 -197.2,-47.22 -223.46,-217.18 -616.44,98.91 -1446.23,-5.73 -2074.52,-107.54 -194.77,-31.56 -489.65,-55.15 -530.98,-171.03 -155.32,95.07 -229.67,86.92 -200.15,-116.9l-74.87 94.02c-73.49,-26.24 -564.14,-201.55 -480.71,-232.73l-62.83 -53.55c-260.24,-38.62 -497.56,-325.35 -408.76,-702.98 49.31,-69.96 254.19,-11.03 379.52,-80.58 -684.13,54.33 -1138.92,-265.33 -1342.32,-739.54 -246.33,-574.28 -9.93,-1246.28 360.36,-1520.4 672.47,-497.82 1693.29,-315.91 2005.95,577.79 141.52,404.52 45.6,547.76 -10.08,913.29 174.8,-28.36 745.97,-209.18 848.25,-162.55 360.36,-93.96 642.51,-167.8 1069.15,-177.88 -799.68,-1711.81 -223.19,-1218.96 -428.57,-1826.55 -69.48,-205.54 -83.28,-485.77 6.65,-668.94 -664.07,59.35 -333.92,-1044.18 -9.48,-1248.34l-136.35 -187.09c-500.47,47.39 -924.17,927.5 -1116.43,973.76 -182.43,43.89 -1041.26,-436.99 -2261.19,-24.54 -544.35,184.04 -410.71,263.46 -658.37,-326.31 -136.09,-324.09 -227.36,-698.78 -639.57,-681.88 -384.6,201.01 -717.11,1322.03 -861.79,1845.23 -643.85,2328.29 -439.77,5067.34 48.2,7409.49 330.03,1584.01 955.07,2723.74 1745.06,3722.08 84.83,107.21 219.8,288.61 304.09,372.38 763.36,758.72 1213.19,1273.17 2253.77,1828.93 164.2,87.7 330.85,167.85 338.55,391.17 -320.32,60.5 -756.21,-306.42 -994.98,-447.39 -186.72,-110.25 -407.7,-34.05 -657.36,-5.43 -754.89,86.53 -1854.83,227.29 -2549.07,478.81 -226.97,82.23 -404.14,131.11 -429.04,374.31 129.54,163.4 329.52,164.24 580.4,207.73z"/>
   <path class="fil1" d="M2691.24 15275.49c82.95,-292.75 218.44,-494.54 270.02,-803.93 112.35,49.18 285.69,239.33 398.94,329.73 92.98,74.21 269.85,247.32 337.6,329.87l-1006.55 144.32zm-453.86 -1862.17c60.23,84.63 127.23,178.51 192.67,258.14 59.94,72.94 155.77,154.24 184.36,231.75 86.82,235.35 -279.14,1070.21 -381.64,1299.15 -146.47,327.18 -81.48,328.26 -454.68,409.05 -236.11,51.1 -442.22,141.01 -667.01,193.52 77.79,-691.21 138.74,-1255.97 160.48,-1962.26 20.48,-665.01 -44.89,-1381.69 -14.55,-2015.06 466.83,821.25 444.51,832.77 980.37,1585.72zm4582.31 -10323c427.3,-278.42 895.46,27.42 1028.34,366.43 186.72,476.36 -145.12,895.56 -532.41,964.81 -118.63,-114.69 -191.49,-275.06 -277.83,-432.08l170.43 -72.37c445.58,-165.32 250.46,-926.31 -392.72,-583.93l4.18 -242.84zm-302.36 -1137.76c-89.93,183.16 -76.12,463.4 -6.65,668.94 205.38,607.59 -371.11,114.74 428.57,1826.55 237.25,4.45 415.45,26.11 399.24,273.87l130.37 -11.47 212.7 590.12c124.3,215.86 235.75,571.92 342.98,822.03 131.52,306.79 261.09,510.83 389.46,786.07 -585.76,-6.82 -827.83,-170.64 -952.76,19.98 26.26,169.96 45.61,180.34 223.46,217.18 590.83,122.37 2129.48,101.15 2659.43,19.94 462.04,-70.8 856.56,-223.11 1224.71,-421.57 1389.33,-748.93 1409.17,-1512.18 1807.1,-3065.29 160.41,-626.12 504.05,-2125.72 1020.5,-2234.08 253.6,111.54 224.96,321.66 198.89,617.95 -22.27,253.05 28.34,587.47 -47.82,811.12 8.23,162.6 -12.5,520.09 -82.72,651.26 -93.81,348.16 9.66,1143.2 -13.61,1587 -26.71,509.27 -128.47,932.8 -176.51,1419.2 -101.88,1031.41 192.15,1894.96 301.4,2894.4 111.05,1015.76 182.86,2064.86 -33.78,3066.34 -96.47,445.92 -224.41,871.63 -399.02,1246.29 -94.37,202.48 -161.21,375.39 -264,561.99 -88.29,160.28 -192.59,396.76 -328.73,476.43 -48.04,145.5 -188.73,351.72 -322.82,444.98 -185.61,-144.72 -283.97,-537.42 -243.98,-866.43l-54.49 -168.99c-3.41,-8.76 -12.6,-14.57 -15.22,-33.17 -2.7,-19.06 -8.9,-23.6 -16.16,-33.73 -355.27,153.95 -263.72,619.78 -132.77,943.64 122.78,303.64 348.08,493.11 650.75,621.66 1112.82,472.57 3341.13,-274.85 4746.27,199.1 405.73,136.87 498.02,459.25 162.3,724.98 -200.44,158.64 -710.51,236.01 -1007.49,268.77 -1457.36,160.76 -3428.42,159.67 -4822.87,-196.35 -946.2,-241.57 -1446.55,-637.02 -1859.98,-728.28 -819.63,-180.94 -933.13,208.79 -727.15,276.7 128.11,42.25 632.29,-126.79 1092.53,198.05l-2072.23 332.87c-1028.37,95.93 -6636.26,-1.45 -6888.51,-116l-564.95 -9.14c-250.87,-43.49 -450.86,-44.33 -580.4,-207.73 24.9,-243.2 202.08,-292.08 429.04,-374.31 694.24,-251.52 1794.18,-392.28 2549.07,-478.81 249.66,-28.62 470.64,-104.82 657.36,5.43 238.77,140.98 674.66,507.9 994.98,447.39 -7.7,-223.33 -174.35,-303.47 -338.55,-391.17 -1040.58,-555.76 -1490.42,-1070.21 -2253.77,-1828.93 -84.29,-83.77 -219.26,-265.17 -304.09,-372.38 -789.99,-998.34 -1415.03,-2138.07 -1745.06,-3722.08 -487.97,-2342.14 -692.06,-5081.19 -48.2,-7409.49 144.69,-523.2 477.19,-1644.21 861.79,-1845.23 412.21,-16.9 503.48,357.79 639.57,681.88 247.66,589.76 114.02,510.35 658.37,326.31 1219.93,-412.44 2078.76,68.43 2261.19,24.54 192.25,-46.26 615.95,-926.37 1116.43,-973.76l136.35 187.09c47.83,306.95 209.79,1003.56 9.48,1248.34zm-6085.22 14508.21c194.29,638.64 894.63,626 1564.02,649.86 725.08,25.85 1448.53,54.98 2173.84,76.73 1444.94,43.31 2940.59,85.83 4382.37,16.9 651.38,-31.15 1389.09,-82.47 2015.95,-189.43 195.1,-33.28 783.65,-226.64 892.28,-206.12 144.14,27.24 609.55,226.15 838.38,288.91 1437.82,394.34 2731.08,286.5 4220.02,303.73 271.3,14.36 813.11,-73.42 1094.15,-120.33 396.23,-66.14 677.99,-200.15 979.15,-271.84l194.03 -235.7c64.87,-91.42 97.71,-180.76 136.84,-279.06 343.74,-1090.94 -1192.1,-1212.93 -2054.02,-1214.13 -556.34,-0.78 -1062.02,32.91 -1608.77,72.14 -275.99,19.8 -1246.99,148.07 -1499.73,-48.65 162.08,-312.68 394,-475.46 722.34,-1223.97 214.48,-488.94 386.04,-944.52 499.07,-1485.22 239.6,-1146.11 157.46,-2482.83 -11.21,-3640.08 -85.44,-586.14 -223.36,-1104.36 -262.76,-1715.02 -41.61,-644.72 115.54,-1171.81 171.31,-1788.97 59.35,-656.94 -12.99,-1258.14 19.11,-1912.09 28.26,-575.79 182.8,-1257.3 159.84,-1797.43 -29.31,-689.27 -1006.08,-1545.48 -1781.66,605.76 -285.77,792.65 -533,2513.01 -887.28,3082.2 -449.3,721.86 -1407.12,1296.41 -2638.28,1328.45 -351.68,9.15 -597.89,72.66 -875.81,-93.69 -266.28,-159.39 -874.22,-1810.54 -955.34,-2037.35 142.8,-205.08 677.5,-641.49 315.72,-1406.88 -400.31,-846.87 -1210.54,-631.44 -1270.87,-687.5 -211.14,-423.38 338.21,-1614.99 -226.16,-2273.56 -548.92,-640.54 -1381.53,444.25 -1633.41,736.83 -594.18,-67.77 -1007.37,-248.88 -1802.26,-78.26 -194.75,41.81 -328.1,118.59 -521.42,158.57 -87.67,-344.66 -279.95,-692.46 -484.1,-872.33 -261.13,-230.09 -674.31,-288.89 -953.32,-50.15 -460.39,393.96 -684.18,1227.61 -878.55,1818.8 -527.46,1604.34 -510.08,3104.76 -410.13,4903.4 40.93,736.32 117.94,1716.32 284.2,2407.14 197.38,820.12 379.97,1359.05 437.79,2273.35 86.97,1374.86 63.09,2509.52 -58.27,3860.35 -19.08,212.44 -0.85,432.23 -101.05,571.02 -134.51,186.33 -171.46,155 -186.01,473.62z"/>
   <path class="fil2" d="M16518.98 17401.36c-1488.94,-17.23 -2782.21,90.61 -4220.02,-303.73 -228.83,-62.76 -694.23,-261.67 -838.38,-288.91 -108.63,-20.52 -697.19,172.84 -892.28,206.12 -626.86,106.95 -1364.57,158.28 -2015.95,189.43 -1441.78,68.93 -2937.43,26.41 -4382.37,-16.9 -725.31,-21.75 -1448.75,-50.88 -2173.84,-76.73 -669.39,-23.86 -1369.73,-11.23 -1564.02,-649.86 -172.75,54.49 -298.41,179.92 -137.87,354.57 70.78,76.99 249.27,150.22 370.45,194.6 280.72,102.8 588.14,174.34 891.28,234.13 3245.75,640.13 9529.97,634.93 12915.91,386.28 344.49,-25.3 691.42,-54.54 1037.49,-84.62 181.25,-15.76 860.23,-61.04 1009.6,-144.37z"/>
   <path class="fil3" d="M5021.85 4788.48c-161.2,242.03 -203.05,332.29 -381.7,497.02 -141.05,130.06 -382.01,251.17 -632.21,271.84 -125.34,69.55 -330.21,10.62 -379.52,80.58 -88.8,377.63 148.52,664.36 408.76,702.98l-6.96 -131.59c131.27,-102.61 1049.43,-696.75 1256.77,-772.51 98.62,-36.04 31.03,-28.2 111.06,-16.08 273.33,41.4 -38.81,228.55 -168.99,303.78l-1129.05 669.95c-83.43,31.18 407.22,206.49 480.71,232.73l74.87 -94.02c91.5,-93.37 142.14,-152.8 243.48,-240.11 158.37,-136.44 597.36,-659.63 724.92,-537.42 94.99,126.47 -15.78,169.02 -110.68,253.07 -94.37,83.58 -125.18,144.73 -222.21,226.3 -148.27,124.62 -345.4,237.21 -435.36,415.06 41.33,115.88 336.22,139.47 530.98,171.03 628.29,101.8 1458.08,206.45 2074.52,107.54 124.93,-190.62 367,-26.79 952.76,-19.98 -128.37,-275.25 -257.95,-479.29 -389.46,-786.07 -107.23,-250.11 -218.68,-606.17 -342.98,-822.03l-179.33 -212.55c-115.96,176.63 -322.61,179.48 -554.52,178.74l-165.67 117.18c11.93,529.21 268.61,385.84 533.86,669.17 99.63,106.41 79.11,143.07 0.54,226.63 -173.25,94.74 -431.24,-188.45 -600.25,-271.05 -209.19,241.76 -519.03,795.61 -718.38,696.27 -208.18,-199.86 105.92,-387.13 246.6,-564.45 161.51,-203.57 345.13,-376.21 210.34,-721.02 -348.49,-33.77 -883.47,-183.22 -926.55,-493.4 64.22,-166.56 190.43,-211.73 341.9,-300.16 -102.28,-46.63 -673.45,134.19 -848.25,162.55z"/>
   <path class="fil3" d="M12983.73 14355.35c-39.98,329.01 58.37,721.72 243.98,866.43 134.1,-93.26 274.78,-299.48 322.82,-444.98 418.92,-786.37 773.17,-1550.83 959.03,-2583.55 135.41,-752.42 195.01,-2547.39 -105.26,-3187.42 -174.03,2377.41 -1215.74,2458.45 -1419.17,4512.94 -12.47,125.89 -28.67,273.4 -31.1,398.81 -3.43,177.62 41.47,274.42 29.69,437.77z"/>
   <path class="fil4" d="M5442.4 13969.84c454.37,290.93 342.75,33.81 819.69,-806.28 402.08,-708.24 1400.4,-2334.48 1670.83,-2899.74 81.43,-170.24 321.9,-482.47 225.27,-667.74 -140.1,-268.59 -440.62,-10.33 -546.17,84.99 -118.32,106.87 -146.46,121.14 -244.68,205.09 -250.81,214.36 -875.68,925.89 -1088.18,1233.83 -426.12,617.55 -984.45,1882.13 -836.75,2849.85z"/>
   <path class="fil0" d="M1111.07 15804.92c224.79,-52.5 430.9,-142.41 667.01,-193.52 373.2,-80.79 308.21,-81.87 454.68,-409.05 102.49,-228.94 468.45,-1063.8 381.64,-1299.15 -28.59,-77.5 -124.42,-158.81 -184.36,-231.75 -65.44,-79.63 -132.44,-173.51 -192.67,-258.14 -535.87,-752.95 -513.55,-764.47 -980.37,-1585.72 -30.34,633.37 35.02,1350.05 14.55,2015.06 -21.74,706.29 -82.69,1271.05 -160.48,1962.26z"/>
   <path class="fil4" d="M6204.35 9254.4c-326.42,-112.98 -699.37,194.73 -963.04,378.6 -536.19,373.91 -1043.44,1030.08 -1231.66,1688.85 -64.81,226.84 -358.89,1488.76 138.3,1374.62 155.15,-35.61 217.44,-337.71 412.3,-709.82 464.98,-887.99 872.31,-1434.44 1457.36,-2214.46 133.94,-178.56 260.85,-238.2 186.75,-517.78z"/>
   <path class="fil4" d="M2967.89 3864.07c323.53,-933.49 2055.37,-612.76 1814.51,634.4 -224.11,1160.5 -1894.7,910.03 -1904.29,-77.48 60.04,130.3 225.7,261.8 458.55,234.19 659.34,-78.2 444.07,-1231.39 -368.76,-791.11zm1040.05 1693.27c250.2,-20.67 491.16,-141.78 632.21,-271.84 178.65,-164.74 220.5,-254.99 381.7,-497.02 55.68,-365.53 151.6,-508.77 10.08,-913.29 -312.66,-893.7 -1333.48,-1075.6 -2005.95,-577.79 -370.29,274.12 -606.69,946.12 -360.36,1520.4 203.4,474.21 658.19,793.87 1342.32,739.54z"/>
   <path class="fil5" d="M2967.89 3864.07c812.84,-440.28 1028.1,712.9 368.76,791.11 -232.84,27.61 -398.5,-103.89 -458.55,-234.19 9.59,987.51 1680.18,1237.98 1904.29,77.48 240.86,-1247.16 -1490.98,-1567.89 -1814.51,-634.4z"/>
   <path class="fil4" d="M4427.34 9006.92c-441.05,-287.03 -1401.28,314.5 -1722.01,937.18 -83.1,161.33 -273.09,585.62 -164.78,767.8 149.34,251.17 452.06,-156.15 519.49,-225.51l491.83 -444.93c177.5,-156.07 313.34,-291.53 477.86,-458.47 282.57,-286.74 441.48,-337.08 397.61,-576.07z"/>
   <path class="fil6" d="M5870.1 4625.93c-151.47,88.43 -277.68,133.6 -341.9,300.16 43.08,310.18 578.06,459.63 926.55,493.4l327.28 -35.56 165.67 -117.18 -160.25 -59.94c32.95,-127.22 51.2,-152.41 198.44,-199.4 79.78,-25.47 181.83,-37.67 271.2,-56.92l81.39 -228.58c16.21,-247.75 -162,-269.42 -399.24,-273.87 -426.63,10.08 -708.78,83.92 -1069.15,177.88z"/>
   <path class="fil3" d="M1171.42 2579.57c355.5,-20.57 689.45,-271.02 833.22,-493.07 276.36,-426.83 49.31,-679.31 -68.22,-1032.99 -561.74,23.81 -767.91,951.29 -764.99,1526.06z"/>
   <path class="fil7" d="M6819.69 3090.32l-4.18 242.84c643.18,-342.37 838.3,418.61 392.72,583.93l-170.43 72.37c86.34,157.03 159.19,317.39 277.83,432.08 387.29,-69.24 719.13,-488.45 532.41,-964.81 -132.89,-339.01 -601.04,-644.85 -1028.34,-366.43z"/>
   <path class="fil4" d="M6454.76 5419.49c134.79,344.81 -48.83,517.44 -210.34,721.02 -140.68,177.32 -454.79,364.59 -246.6,564.45 199.36,99.34 509.19,-454.51 718.38,-696.27 169,82.6 426.99,365.79 600.25,271.05 78.57,-83.56 99.08,-120.22 -0.54,-226.63 -265.25,-283.33 -521.94,-139.96 -533.86,-669.17l-327.28 35.56z"/>
   <path class="fil3" d="M1473.77 16635.45l564.95 9.14c263.2,-28.3 522.71,39.53 800.98,-12.34 -73.32,-503.29 -1241.79,-621.62 -1365.93,3.2z"/>
   <path class="fil3" d="M6517.33 1952.56c200.3,-244.78 38.35,-941.39 -9.48,-1248.34 -324.44,204.16 -654.59,1307.69 9.48,1248.34z"/>
   <path class="fil7" d="M2691.24 15275.49l1006.55 -144.32c-67.74,-82.56 -244.62,-255.66 -337.6,-329.87 -113.25,-90.4 -286.59,-280.55 -398.94,-329.73 -51.58,309.39 -187.07,511.18 -270.02,803.93z"/>
   <path class="fil3" d="M14464.79 3525.14c70.22,-131.18 90.95,-488.66 82.72,-651.26 -7.31,-233.27 44.26,-432.65 -17.87,-668.96 -142.91,136.67 -308.11,402.74 -363.08,652.46 -74.67,339.24 49.78,618.6 298.24,667.76z"/>
   <path class="fil4" d="M4037.17 6340.9l62.83 53.55 1129.05 -669.95c130.19,-75.23 442.33,-262.39 168.99,-303.78 -80.03,-12.12 -12.45,-19.97 -111.06,16.08 -207.34,75.76 -1125.5,669.9 -1256.77,772.51l6.96 131.59z"/>
   <path class="fil4" d="M4655.58 6533.16c-29.51,203.83 44.84,211.97 200.15,116.9 89.96,-177.85 287.09,-290.43 435.36,-415.06 97.03,-81.57 127.84,-142.72 222.21,-226.3 94.9,-84.06 205.68,-126.6 110.68,-253.07 -127.57,-122.21 -566.55,400.98 -724.92,537.42 -101.35,87.31 -151.98,146.73 -243.48,240.11z"/>
   <path class="fil8" d="M9490.73 5225.81c-65.68,-127.69 -57.81,-107.58 -223.26,-106.68 -123.29,0.68 -251.25,9.44 -378.33,9.06 -122.49,-0.36 -596.63,-84.49 -540.4,119.21 43.59,157.97 406.91,114.24 578.17,114.14 223.11,-0.13 489.5,42.46 563.83,-135.73z"/>
   <path class="fil9" d="M9493.81 5874.49c41.35,-256.18 -138.94,-185.42 -389.56,-220.04 -143.97,-19.89 -471.11,-158.87 -566.28,-63.63 -247.94,248.1 801.76,337.21 955.84,283.68z"/>
   <path class="fil4" d="M4397.61 2789.21c57.77,-158.17 -23.57,-272.44 -96.51,-431.4 -96.11,-209.43 -70.78,-380.46 -282.35,-352.55 -94.55,155.96 12.14,297.61 78.16,446.18 89.31,200.98 74.87,349.6 300.7,337.77z"/>
   <path class="fil10" d="M6947.71 5266.75c231.91,0.73 438.56,-2.11 554.52,-178.74 -7.52,-149.17 -76.39,-117.4 -245.13,-137.52 -89.37,19.25 -191.42,31.46 -271.2,56.92 -147.24,46.99 -165.49,72.18 -198.44,199.4l160.25 59.94z"/>
   <path class="fil11" d="M6191.69 2730.02c159.89,-89.2 102.93,-137.68 73.12,-343.4 -20.63,-142.33 -10.62,-376.46 -150.09,-379.74 -162.91,-3.83 -102.69,217.75 -85.34,348.07 40.07,300.74 19.78,313.54 162.31,375.07z"/>
   <path class="fil4" d="M3630.03 2103.59c-23.55,173.33 266.96,781.2 432.86,618.6 98.95,-96.99 -68.98,-260.75 -128.34,-372.12 -67.15,-125.97 -130.93,-318.72 -304.51,-246.48z"/>
   <path class="fil12" d="M18592.28 17009.18c120.12,-26.08 344.43,-133.81 399.47,-183.89 42.88,-39.02 76.81,-89.63 71.94,-167.41 -8.39,-133.96 -55.96,-129.33 -140.54,-163.45 -39.12,98.3 -71.97,187.64 -136.84,279.06l-194.03 235.7z"/>
   <path class="fil13" d="M7338.49 4721.91l-81.39 228.58c168.74,20.11 237.61,-11.65 245.13,137.52l179.33 212.55 -212.7 -590.12 -130.37 11.47z"/>
  </g>
 </g>
</svg>
